HIERARCHY
ROOT pelvis
{
  OFFSET 0 100 0
  CHANNELS 6 Xposition Yposition Zposition Zrotation Xrotation Yrotation
  JOINT pelvis_right_femur
  {
    OFFSET -10.78128 -3.44521 -0.5502486
    CHANNELS 3 Zrotation Xrotation Yrotation
    JOINT right_femur_tibia
    {
      OFFSET -0.8047443 -44.0398 -0.1307829
      CHANNELS 3 Zrotation Xrotation Yrotation
      JOINT right_tibia_foot
      {
        OFFSET 3.006224 -47.83518 -5
        CHANNELS 3 Zrotation Xrotation Yrotation
        End Site
        {
          OFFSET 0 -5 15
        }
      }
    }
  }
  JOINT pelvis_left_femur
  {
    OFFSET 10.78128 -3.44521 -0.5502486
    CHANNELS 3 Zrotation Xrotation Yrotation
    JOINT left_femur_tibia
    {
      OFFSET 0.8047443 -44.0398 -0.1307829
      CHANNELS 3 Zrotation Xrotation Yrotation
      JOINT left_tibia_foot
      {
        OFFSET -4.370144 -48.10324 -4.275266
        CHANNELS 3 Zrotation Xrotation Yrotation
        End Site
        {
          OFFSET 0 -5 15
        }
      }
    }
  }
  JOINT pelvis_spine1
  {
    OFFSET 0 6.468898 -3.129235
    CHANNELS 3 Zrotation Xrotation Yrotation
    JOINT spine1
    {
      OFFSET 0 23.15396 4.99043
      CHANNELS 3 Zrotation Xrotation Yrotation
      JOINT spine2
      {
        OFFSET 0 20.79997 -5.064912
        CHANNELS 3 Zrotation Xrotation Yrotation
        JOINT neck
        {
          OFFSET 0 14.38658 9.616178
          CHANNELS 3 Zrotation Xrotation Yrotation
          End Site
          {
            OFFSET 0 20 0
          }
        }
      }
      JOINT right_manubrium
      {
        OFFSET -5.722621 16.35077 3.967754
        CHANNELS 3 Zrotation Xrotation Yrotation
        JOINT right_clavicle
        {
          OFFSET -13.16364 1.694482 -4.693211
          CHANNELS 3 Zrotation Xrotation Yrotation
          JOINT right_humerus
          {
            OFFSET -28.5034 -0.3100689 -2.792744
            CHANNELS 3 Zrotation Xrotation Yrotation
            JOINT right_radius
            {
              OFFSET -25.15693 0.02248979 -1.271978
              CHANNELS 3 Zrotation Xrotation Yrotation
              End Site
              {
                OFFSET -15 0 0
              }
            }
          }
        }
      }
      JOINT left_manubrium
      {
        OFFSET 5.722621 16.35077 3.967754
        CHANNELS 3 Zrotation Xrotation Yrotation
        JOINT left_clavicle
        {
          OFFSET 13.16364 1.694482 -4.693211
          CHANNELS 3 Zrotation Xrotation Yrotation
          JOINT left_humerus
          {
            OFFSET 29.39168 -1.063119 -2.237045
            CHANNELS 3 Zrotation Xrotation Yrotation
            JOINT left_radius
            {
              OFFSET 24.59957 -0.9528479 0.9047498
              CHANNELS 3 Zrotation Xrotation Yrotation
              End Site
              {
                OFFSET 15 -0 -0
              }
            }
          }
        }
      }
    }
  }
}
MOTION
Frames: 11
Frame Time: 0.0416666666667
-189.7123 99.49418 3103.042 -1.929711 -6.024779 -19.42258 2.828789 19.229 3.303331 -0 19.26462 -0 -1.776286 -12.98468 -1.16948 1.068709 -23.91352 -4.14004 -0 16.00573 -0 -4.200767 -6.168261 19.11889 -0.7002345 1.33875 6.096541 1.147141 13.12262 -7.51185 1.956145 23.30119 1.353687 -2.903181 -26.23438 7.670704 -8.894168 -31.30036 11.32131 98.15936 26.81854 -13.11636 -0 0 20.12319 -15.66373 0.6691716 5.579278 -0.695876 -15.7165 -4.05813 -86.11671 12.79191 29.79216 0 0 -6.871012 15.36452 13.40089 -11.00306
-190.9319 99.16345 3110.105 -1.313836 -6.353639 -19.7045 1.317972 19.75129 3.149358 -0 25.44284 -0 -1.548928 -8.927845 -1.022431 -1.086632 -22.15068 -5.756306 -0 17.2282 -0 -3.78252 -6.879816 19.2541 -0.6793303 1.570456 6.177376 1.038955 13.04618 -7.469977 1.936074 23.13243 1.153582 -3.046778 -26.32518 7.552983 -8.8962 -31.91601 11.22296 97.68544 26.7672 -12.22797 -0 0 21.3916 -15.83977 0.6185471 5.748291 -0.722128 -15.12452 -3.755876 -86.45737 12.88046 30.84303 0 0 -4.972136 15.44481 13.44694 -11.26245
-192.1706 99.38279 3117.263 -0.7488614 -7.11801 -19.59436 0.09167936 18.78989 2.860148 -0 33.36591 -0 -1.581341 -3.679391 -1.25996 -3.231902 -19.17641 -7.275633 -0 19.21683 -0 -3.263999 -7.979907 19.32391 -0.7806762 1.764986 6.160546 0.986034 12.91648 -7.443442 1.920078 23.16118 1.164769 -3.090218 -26.58977 7.63175 -9.018844 -32.2198 11.12818 97.58256 26.88058 -11.82326 -0 0 21.87162 -15.88329 0.1707876 5.648471 -0.7357316 -14.65342 -3.504082 -86.59093 13.04212 31.24768 0 0 -3.676788 15.6498 13.33651 -11.76133
-193.3876 100.1547 3124.253 -0.4443777 -7.988127 -19.03465 -0.5161832 15.89863 2.467032 -0 41.92069 -0 -1.79298 1.538189 -1.857522 -4.810899 -15.12548 -8.302689 -0 20.60704 -0 -2.6457 -9.247172 19.1926 -1.00621 1.919806 6.050844 0.9848788 12.7441 -7.431374 1.91296 23.40157 1.38357 -3.029568 -27.03825 7.911538 -9.284557 -32.21784 11.0331 97.85822 27.13286 -11.89826 -0 0 21.57839 -15.83557 -0.685384 5.254834 -0.7320822 -14.29375 -3.290524 -86.55237 13.28582 31.03251 0 0 -2.837594 15.98154 13.07453 -12.54158
-194.5264 101.3326 3130.848 -0.4917514 -8.643506 -18.11482 -0.4761183 11.03862 2.117562 -0 49.29894 -0 -2.154543 5.586856 -2.698973 -5.597095 -10.34685 -8.754713 -0 20.66632 -0 -1.902614 -10.44964 18.85885 -1.36283 2.034949 5.847456 1.035073 12.50907 -7.436083 1.90495 23.84452 1.814815 -2.854807 -27.67985 8.392395 -9.696005 -31.93578 10.93645 98.46486 27.47865 -12.40273 -0 0 20.61671 -15.76095 -1.929695 4.572328 -0.685269 -14.00694 -3.069525 -86.39096 13.61751 30.24665 0 0 -2.254174 16.43198 12.6589 -13.6571
-195.5509 102.6346 3136.934 -0.8371568 -8.926485 -17.02633 -0.02110898 4.717608 1.916013 -0 53.55321 -0 -2.683197 7.761745 -3.584153 -5.693167 -5.338409 -8.829628 -0 19.40607 -0 -1.104642 -11.50561 18.39481 -1.858885 2.106975 5.54869 1.138059 12.17267 -7.460781 1.875273 24.462 2.466031 -2.553744 -28.51038 9.067059 -10.23767 -31.40875 10.83949 99.31279 27.86363 -13.25485 -0 0 19.14633 -15.7335 -3.505612 3.635151 -0.5585598 -13.74278 -2.779713 -86.15917 14.03425 28.9579 0 0 -1.73726 16.97546 12.08819 -15.143
-196.4715 103.7219 3142.549 -1.299444 -8.863433 -15.96699 0.514004 -2.182401 1.742632 -0 53.33811 -0 -3.338213 7.881045 -4.31304 -5.388982 -0.5834963 -8.797704 -0 17.34705 -0 -0.4910449 -12.57448 17.80795 -2.499736 2.126064 5.157819 1.295321 11.69374 -7.506004 1.798123 25.21066 3.336842 -2.12105 -29.49843 9.916561 -10.87317 -30.67624 10.74613 100.2842 28.24817 -14.35278 -0 0 17.34644 -15.80739 -5.318537 2.50921 -0.3220079 -13.45541 -2.368079 -85.89572 14.5176 27.25303 0 0 -1.187497 17.56648 11.37098 -16.97888
-197.3446 104.3044 3147.839 -1.631601 -8.55655 -15.06338 0.8256199 -8.79678 1.299344 -0 48.42637 -0 -3.953068 6.289832 -4.790767 -5.020392 3.621788 -8.794602 -0 15.12291 -0 -0.2837842 -13.94737 17.04362 -3.280301 2.076411 4.686739 1.508136 11.04686 -7.567864 1.650412 26.03238 4.406536 -1.568759 -30.57393 10.9033 -11.53661 -29.78002 10.66636 101.2481 28.62861 -15.58825 -0 0 15.38628 -15.98073 -7.231974 1.297974 0.03021274 -13.12091 -1.816595 -85.6079 15.02657 25.23151 0 0 -0.6737084 18.14484 10.53589 -19.05829
-198.2502 104.2254 3153.007 -1.631437 -8.06806 -14.34708 0.7517798 -14.57279 0.3747771 -0 39.79034 -0 -4.337531 3.851778 -5.040339 -4.857683 7.2233 -8.76768 -0 13.23925 -0 -0.4268959 -15.77549 16.12678 -4.173533 1.939763 4.155844 1.778787 10.23825 -7.640708 1.420091 26.85236 5.623974 -0.9330076 -31.62545 11.96228 -12.127 -28.76338 10.62114 102.0772 29.03789 -16.86361 -0 0 13.4081 -16.17518 -9.064409 0.1442666 0.4737179 -12.75687 -1.161005 -85.2637 15.49179 22.98943 0 0 -0.4685161 18.64879 9.640401 -21.18451
-199.2665 103.4947 3158.26 -1.256363 -7.413586 -13.7812 0.362976 -19.26235 -0.9336316 -0 29.29956 -0 -4.448268 1.681353 -5.151862 -5.001356 10.32144 -8.591364 -0 12.10667 -0 -0.6741702 -17.87797 15.19697 -5.119734 1.703078 3.591644 2.109623 9.312664 -7.722229 1.113035 27.58061 6.905419 -0.2723998 -32.51583 12.9978 -12.52141 -27.6716 10.64138 102.6677 29.52211 -18.10599 -0 0 11.52252 -16.25235 -10.6031 -0.7853787 0.9643236 -12.43284 -0.4888845 -84.80411 15.81949 20.60557 0 0 -0.9930147 19.03332 8.770033 -23.10588
-200.4572 102.2688 3163.774 -0.6556231 -6.64125 -13.30506 -0.04585796 -22.73173 -2.236376 -0 19.16257 -0 -4.412064 0.6185675 -5.24858 -5.341601 13.03166 -8.215324 -0 12.15442 -0 -0.9287098 -19.77146 14.3725 -6.024896 1.369897 3.025746 2.496002 8.349569 -7.815583 0.7565046 28.12317 8.143169 0.34409 -33.11892 13.89574 -12.61291 -26.55516 10.75503 102.9623 30.10648 -19.26972 -0 0 9.811119 -16.07185 -11.64625 -1.342032 1.456662 -12.25768 0.08570561 -84.17674 15.91595 18.14963 0 0 -2.655405 19.28235 8.019934 -24.57783
